<?xml version="1.0" encoding="UTF-8"?>
<svg id="Layer_1" xmlns="http://www.w3.org/2000/svg" version="1.1" viewBox="0 0 1000 496.97">
  <!-- Generator: Adobe Illustrator 29.5.1, SVG Export Plug-In . SVG Version: 2.1.0 Build 141)  -->
  <defs>
    <style>
      .st0 {
        stroke: #00a399;
      }

      .st0, .st1 {
        fill: none;
        stroke-miterlimit: 10;
        stroke-width: 14px;
      }

      .st2 {
        fill: #00353d;
      }

      .st3 {
        fill: #44ead6;
      }

      .st4 {
        fill: #ff5549;
      }

      .st1 {
        stroke: #00353d;
      }
    </style>
  </defs>
  <path class="st2" d="M234.48,60.6c-103.76,0-187.88,84.12-187.88,187.88s84.12,187.88,187.88,187.88,187.88-84.12,187.88-187.88S338.24,60.6,234.48,60.6ZM268.15,250.24l-33.67,31.26-136.96-114.98,8.68-5.17h270.25l1.47,177.78-109.76-88.89h-.01Z"/>
  <polyline class="st4" points="367.68 334.83 354.49 340.03 101.29 340.03 195.86 252.8 237.48 279.67 265.36 252.8 367.68 340.03"/>
  <polygon class="st3" points="97.99 168.88 101.29 340.03 203.61 252.8 97.99 168.88"/>
  <path class="st0" d="M369.1,340.03H101.29c-1.82,0-3.3-171.15-3.3-171.15,0-1.82,1.48-3.3,3.3-3.3h267.81c1.82,0,3.3,1.48,3.3,3.3v167.85c0,1.82-1.48,3.3-3.3,3.3h0Z"/>
  <polyline class="st0" points="101.29 165.58 237.48 279.67 369.1 165.58"/>
  <line class="st0" x1="201.95" y1="247.61" x2="99.64" y2="334.83"/>
  <line class="st0" x1="270.08" y1="252.8" x2="372.4" y2="340.03"/>
  <g>
    <path class="st2" d="M467.55,216.68h50.06v5.75h-43.43v28.73h33.7v5.75h-33.7v31.38h43.76v5.75h-50.39v-77.35h0Z"/>
    <path class="st2" d="M531.42,239.23h6.41v9.17c1.4-3.02,3.61-5.56,6.63-7.62s6.37-3.09,10.06-3.09c3.46,0,6.56.98,9.28,2.93,2.72,1.95,4.64,4.66,5.75,8.12,1.69-3.24,4.09-5.89,7.18-7.96,3.09-2.06,6.48-3.09,10.17-3.09,4.93,0,8.91,1.38,11.93,4.14s4.53,6.57,4.53,11.44v40.78h-6.41v-39.23c0-3.9-1-6.81-2.98-8.73-1.99-1.92-4.86-2.87-8.62-2.87-2.58,0-5.01.81-7.29,2.43-2.28,1.62-4.13,4.09-5.53,7.4s-2.1,7.37-2.1,12.16v28.84h-6.41v-38.79c0-3.61-.96-6.52-2.87-8.73-1.92-2.21-4.64-3.31-8.18-3.31-2.73,0-5.25.87-7.57,2.6-2.32,1.73-4.16,4.22-5.53,7.46-1.36,3.24-2.04,7.04-2.04,11.38v29.39h-6.41v-54.81h0Z"/>
    <path class="st2" d="M621.26,290.89c-3.31-3.13-4.97-7.13-4.97-11.99s1.71-8.88,5.14-11.82c3.43-2.95,7.79-4.82,13.09-5.64l19.56-3.2v-2.65c0-3.98-1.25-7-3.76-9.06-2.5-2.06-6-3.09-10.5-3.09s-8.25,1.01-10.83,3.04-3.87,4.44-3.87,7.24c0,.52.07,1.07.22,1.66l-5.19,1.77c-.52-1.33-.77-2.72-.77-4.2,0-2.8.88-5.36,2.65-7.68,1.77-2.32,4.22-4.16,7.35-5.53,3.13-1.36,6.61-2.04,10.44-2.04,6.56,0,11.64,1.55,15.25,4.64s5.42,7.29,5.42,12.6v25.42c0,3.17.22,5.69.66,7.57s1.33,3.92,2.65,6.13h-6.41c-.96-1.18-1.79-2.76-2.49-4.75s-1.05-4.35-1.05-7.07c-1.25,3.76-3.74,6.93-7.46,9.5-3.72,2.58-7.68,3.87-11.88,3.87-5.53,0-9.95-1.56-13.26-4.7v-.02ZM645.35,286.19c2.87-2.28,5.05-5.21,6.52-8.79,1.47-3.57,2.21-7.2,2.21-10.88v-2.76l-18.45,3.09c-4.13.74-7.31,2.14-9.56,4.2s-3.37,4.64-3.37,7.74,1.14,5.77,3.43,7.79c2.28,2.03,5.27,3.04,8.95,3.04,3.98,0,7.4-1.14,10.28-3.43h-.01Z"/>
    <path class="st2" d="M676.51,220h8.18v8.84h-8.18v-8.84ZM677.4,239.23h6.41v54.81h-6.41v-54.81h0Z"/>
    <path class="st2" d="M700.6,216.68h6.41v77.35h-6.41v-77.35Z"/>
    <path class="st2" d="M725.13,216.68h30.94c8.03,0,14.42,2.14,19.17,6.41s7.13,10.06,7.13,17.35-2.38,13.08-7.13,17.35c-4.75,4.27-11.14,6.41-19.17,6.41h-24.31v29.84h-6.63v-77.35h0ZM755.85,258.45c6.56,0,11.51-1.56,14.86-4.7,3.35-3.13,5.03-7.57,5.03-13.32s-1.68-10.18-5.03-13.32c-3.35-3.13-8.31-4.7-14.86-4.7h-24.09v36.02h24.09v.02Z"/>
    <path class="st2" d="M810.33,290.61c-5.53-3.32-9.89-8.03-13.09-14.14-3.2-6.11-4.81-13.15-4.81-21.11s1.6-14.99,4.81-21.11c3.21-6.11,7.57-10.83,13.09-14.14,5.53-3.31,11.68-4.97,18.45-4.97s12.93,1.66,18.46,4.97c5.52,3.32,9.89,8.03,13.09,14.14,3.2,6.12,4.81,13.15,4.81,21.11s-1.6,14.99-4.81,21.11-7.57,10.83-13.09,14.14c-5.53,3.32-11.68,4.97-18.46,4.97s-12.93-1.66-18.45-4.97ZM844.09,285.53c4.53-2.87,8.07-6.92,10.61-12.16,2.54-5.23,3.81-11.23,3.81-18.01s-1.27-12.78-3.81-18.01-6.08-9.28-10.61-12.16c-4.53-2.87-9.63-4.31-15.31-4.31s-10.77,1.44-15.3,4.31c-4.53,2.87-8.07,6.93-10.61,12.16-2.54,5.23-3.81,11.24-3.81,18.01s1.27,12.78,3.81,18.01c2.54,5.23,6.08,9.28,10.61,12.16,4.53,2.87,9.63,4.31,15.3,4.31s10.77-1.44,15.31-4.31Z"/>
    <path class="st2" d="M888.62,292.38c-4.46-2.14-7.96-5.14-10.5-9.01s-3.92-8.31-4.14-13.32l6.63-1.33c.29,6.85,2.49,12.08,6.58,15.69,4.09,3.61,9.74,5.41,16.96,5.41,4.64,0,8.51-.75,11.6-2.27,3.09-1.51,5.4-3.52,6.91-6.02,1.51-2.5,2.27-5.23,2.27-8.18,0-4.93-1.75-8.67-5.25-11.22-3.5-2.54-8.56-4.37-15.19-5.47-9.06-1.55-15.82-4.01-20.28-7.4s-6.69-8.21-6.69-14.48c0-3.83,1.05-7.24,3.15-10.22,2.1-2.98,5.06-5.3,8.9-6.96,3.83-1.66,8.21-2.49,13.15-2.49,7.51,0,13.76,1.79,18.73,5.36s8.08,8.53,9.34,14.86l-6.52,1.33c-.96-5.16-3.28-9.08-6.96-11.77s-8.51-4.03-14.48-4.03c-5.6,0-10.15,1.25-13.65,3.76s-5.25,5.89-5.25,10.17,1.82,7.9,5.47,10.44c3.65,2.54,9.04,4.44,16.19,5.69,8.77,1.62,15.29,4.13,19.56,7.51,4.27,3.39,6.41,8.1,6.41,14.14,0,4.42-1.09,8.38-3.26,11.88s-5.32,6.23-9.45,8.18c-4.13,1.95-9.02,2.93-14.7,2.93s-11.07-1.07-15.53-3.2v.02Z"/>
  </g>
  <g>
    <path class="st4" d="M814.59,251.01h3.35l4.2,11.12,4.2-11.12h3.36l-6.04,14.99h-3.02l-6.04-14.99h-.01Z"/>
    <path class="st4" d="M835.83,248.99c-.54.56-1.16.96-1.84,1.18-.69.22-1.55.33-2.6.33v-2.99c1.19,0,2.15-.22,2.89-.65s1.33-1.1,1.8-2.01h2.99v21.16h-3.23v-17.02h-.01Z"/>
  </g>
  <circle class="st1" cx="234.48" cy="248.49" r="187.88"/>
</svg>